HIERARCHY
ROOT Hips
{
 OFFSET 0.000000 0.000000 0.000000
 CHANNELS 6 Xposition Yposition Zposition Yrotation Xrotation Zrotation
 JOINT Chest
 {
  OFFSET 0.000000 9.724570 -1.080508
  CHANNELS 3 Yrotation Xrotation Zrotation
  JOINT Chest2
  {
   OFFSET 0.000000 10.781023 0.000000
   CHANNELS 3 Yrotation Xrotation Zrotation
   JOINT Chest3
   {
    OFFSET 0.000000 9.842877 -0.000488
    CHANNELS 3 Yrotation Xrotation Zrotation
    JOINT Chest4
    {
     OFFSET 0.000000 9.831886 -0.000488
     CHANNELS 3 Yrotation Xrotation Zrotation
     JOINT Neck
     {
      OFFSET 0.000000 13.778020 0.000000
      CHANNELS 3 Yrotation Xrotation Zrotation
      JOINT Head
      {
       OFFSET 0.000000 9.153561 0.001049
       CHANNELS 3 Yrotation Xrotation Zrotation
       End Site
       {
        OFFSET 0.000000 17.013053 0.000141
       }
      }
     }
     JOINT RightCollar
     {
      OFFSET -2.998440 7.723576 0.000000
      CHANNELS 3 Yrotation Xrotation Zrotation
      JOINT RightShoulder
      {
       OFFSET -14.001811 0.000000 0.000000
       CHANNELS 3 Yrotation Xrotation Zrotation
       JOINT RightElbow
       {
        OFFSET -30.003712 0.000000 0.000000
        CHANNELS 3 Yrotation Xrotation Zrotation
        JOINT RightWrist
        {
         OFFSET -24.523460 0.000000 0.000000
         CHANNELS 3 Yrotation Xrotation Zrotation
         End Site
         {
          OFFSET -18.302352 0.000000 0.000000
         }
        }
       }
      }
     }
     JOINT LeftCollar
     {
      OFFSET 2.998440 7.723576 0.000000
      CHANNELS 3 Yrotation Xrotation Zrotation
      JOINT LeftShoulder
      {
       OFFSET 14.001811 0.000000 0.000000
       CHANNELS 3 Yrotation Xrotation Zrotation
       JOINT LeftElbow
       {
        OFFSET 30.003712 0.000000 0.000000
        CHANNELS 3 Yrotation Xrotation Zrotation
        JOINT LeftWrist
        {
         OFFSET 24.523460 0.000000 0.000000
         CHANNELS 3 Yrotation Xrotation Zrotation
         End Site
         {
          OFFSET 18.302352 0.000000 0.000000
         }
        }
       }
      }
     }
    }
   }
  }
 }
 JOINT RightHip
 {
  OFFSET -7.997399 0.002291 -0.000255
  CHANNELS 3 Yrotation Xrotation Zrotation
  JOINT RightKnee
  {
   OFFSET 0.000000 -41.619678 -0.000115
   CHANNELS 3 Yrotation Xrotation Zrotation
   JOINT RightAnkle
   {
    OFFSET 0.000000 -40.601393 -0.000194
    CHANNELS 3 Yrotation Xrotation Zrotation
    JOINT RightToe
    {
     OFFSET 0.000000 -6.581369 14.895014
     CHANNELS 3 Yrotation Xrotation Zrotation
     End Site
     {
      OFFSET 0.000000 -1.508064 6.450961
     }
    }
   }
  }
 }
 JOINT LeftHip
 {
  OFFSET 7.997399 0.000098 -0.000011
  CHANNELS 3 Yrotation Xrotation Zrotation
  JOINT LeftKnee
  {
   OFFSET 0.000000 -41.619678 -0.000115
   CHANNELS 3 Yrotation Xrotation Zrotation
   JOINT LeftAnkle
   {
    OFFSET 0.000000 -40.601393 -0.000194
    CHANNELS 3 Yrotation Xrotation Zrotation
    JOINT LeftToe
    {
     OFFSET 0.000000 -6.581369 14.895014
     CHANNELS 3 Yrotation Xrotation Zrotation
     End Site
     {
      OFFSET 0.000000 -1.508064 6.450961
     }
    }
   }
  }
 }
}
MOTION
Frames: 5
Frame Time: 0.016667
276.015506 87.726058 122.253729 107.580466 3.339555 1.892312 0.199355 0.315203 -0.760634 0.123619 -5.686476 -0.339865 0.123045 0.133942 -0.327316 0.067277 5.937021 -0.246829 -0.958744 9.955200 0.437768 -2.065297 -17.525794 1.294081 -0.139320 -2.107749 9.824843 8.879988 -1.479137 68.603960 67.908403 -19.134453 31.518945 26.876635 18.896587 -12.233866 0.514543 -1.978377 -10.942021 1.567932 3.897889 -60.517823 -90.391994 -26.640456 -30.605881 -28.084854 6.181872 13.445367 -15.009937 -18.829979 2.662849 9.839722 31.126143 3.563632 4.400817 -13.397370 -5.860294 -0.005380 -1.886120 0.326843 13.571275 -45.483741 -13.578264 -174.299754 81.725466 -172.099549 7.977671 -6.541877 12.726113 0.000000 0.000000 0.000000
277.453486 86.797699 121.717951 106.769893 2.659640 2.061208 0.688683 1.048604 -0.648595 0.337147 -5.361242 -0.291098 0.335750 0.459055 -0.256911 0.232313 6.180779 -0.194075 -1.124476 9.231839 0.239589 -2.312233 -18.870277 1.003693 0.309301 -2.504032 10.535668 12.483954 -5.444636 66.608424 68.786532 -19.017353 29.331810 25.671887 18.266296 -12.831075 0.315398 -1.284586 -10.919330 5.503799 5.680414 -60.739298 -89.695584 -28.001961 -31.730375 -27.817036 5.561117 13.639453 -14.099861 -18.954885 2.173671 8.610803 34.693717 3.093471 5.951511 -15.969062 -6.044697 -0.004226 -2.406580 0.104029 14.684547 -49.000257 -14.516332 -174.761786 78.455097 -173.576159 8.482454 -7.028654 13.619161 -0.000000 -0.000000 0.000000
278.765035 86.214204 121.052375 105.311375 1.692572 2.321358 1.355077 2.129359 -0.523499 0.628959 -4.881518 -0.239720 0.626822 0.938517 -0.175913 0.456812 6.540345 -0.133756 -1.281470 8.272203 -0.029722 -2.512141 -20.655297 0.575871 0.824037 -1.710078 11.119596 16.234368 -10.857247 63.497090 69.356253 -18.194345 27.530312 23.842571 17.463783 -13.208481 -0.172724 0.824021 -10.549070 10.285331 5.549205 -61.999586 -88.262156 -29.196840 -33.811570 -27.441618 4.971241 14.238333 -12.445718 -18.878809 1.044542 5.436465 38.063817 1.665149 9.022843 -17.788723 -5.896445 0.005470 -2.868987 -0.244033 16.267559 -52.198582 -15.388779 -175.620031 76.399808 -175.661663 8.776971 -7.305087 14.736436 -0.000000 0.000000 0.000000
280.180146 86.000331 120.382527 104.452653 1.035202 2.578051 1.899369 2.836476 -0.452036 0.868297 -4.567502 -0.213078 0.865761 1.252264 -0.124916 0.639791 6.775699 -0.096057 -1.514805 7.632950 -0.165121 -2.921245 -21.840495 0.442903 0.981252 -0.966982 11.323997 19.464035 -14.783091 61.095664 69.888276 -17.878923 25.965457 22.739486 16.881448 -13.182040 -0.464790 2.378647 -10.188289 14.026268 6.150988 -62.947772 -87.025047 -30.053328 -35.737859 -27.161586 4.462491 14.702780 -11.752180 -18.099882 0.040379 3.137238 39.603960 0.440869 11.504360 -18.912380 -5.803444 0.014074 -3.257039 -0.495032 17.310309 -54.803927 -16.159893 -175.571535 75.602312 -176.737071 8.924366 -7.550002 15.434585 -0.000000 -0.000000 -0.000000
281.817431 86.219626 119.766583 104.883305 0.963146 2.737014 2.202960 2.802154 -0.432236 1.002373 -4.582906 -0.205939 0.999460 1.236675 -0.104138 0.741623 6.764042 -0.080583 -1.931504 7.578833 -0.065440 -3.799856 -21.927084 0.854553 0.468356 -0.714817 10.921464 21.489834 -16.207016 60.815723 70.688089 -18.870690 24.187882 23.043714 16.866799 -12.642754 -0.292156 2.458592 -9.960966 15.890524 8.499423 -62.455325 -86.404245 -30.843125 -37.034867 -27.163781 3.976968 14.884339 -13.168740 -16.198041 -0.530855 3.359126 38.243818 0.349482 12.503494 -19.408726 -5.811172 0.016782 -3.475083 -0.530526 17.235737 -56.795269 -16.841816 -173.646684 76.143893 -175.748020 9.012716 -7.779240 15.472738 0.000000 -0.000000 -0.000000
